<svg width="30" height="30" viewBox="0 0 30 30" fill="none" xmlns="http://www.w3.org/2000/svg">
<path d="M29.8203 3.47118C28.7539 4.05248 27.6082 4.44526 26.4038 4.62279C27.6465 3.70809 28.5763 2.26846 29.0195 0.572519C27.852 1.4256 26.5741 2.02608 25.2416 2.34785C24.3455 1.17089 23.1585 0.390785 21.8651 0.128646C20.5716 -0.133494 19.244 0.137 18.0883 0.898132C16.9326 1.65926 16.0135 2.86845 15.4738 4.33796C14.934 5.80746 14.8037 7.45507 15.1032 9.02498C12.7374 8.87886 10.4231 8.12247 8.31033 6.80488C6.19759 5.4873 4.33367 3.63797 2.83956 1.37692C2.32868 2.46097 2.03493 3.71784 2.03493 5.05641C2.03436 6.26143 2.27559 7.44799 2.73723 8.51081C3.19886 9.57364 3.86663 10.4799 4.68127 11.1491C3.7365 11.1121 2.81258 10.7981 1.98639 10.2331V10.3274C1.9863 12.0175 2.46155 13.6556 3.33151 14.9637C4.20147 16.2718 5.41256 17.1694 6.75927 17.5042C5.88284 17.7959 4.96397 17.8389 4.07205 17.6298C4.45201 19.0841 5.19215 20.3557 6.18883 21.2668C7.18552 22.1779 8.38887 22.6827 9.63041 22.7107C7.52282 24.746 4.91997 25.8499 2.24055 25.8451C1.76592 25.8452 1.2917 25.8111 0.820312 25.7429C3.54007 27.894 6.70606 29.0357 9.93949 29.0312C20.8851 29.0312 26.8687 17.8796 26.8687 8.20801C26.8687 7.8938 26.8623 7.57644 26.8508 7.26222C28.0147 6.22683 29.0194 4.9447 29.8178 3.47589L29.8203 3.47118Z" fill="white"/>
</svg>
