<svg width="12" height="11" viewBox="0 0 12 11" fill="none" xmlns="http://www.w3.org/2000/svg">
<g clip-path="url(#clip0_666_2776)">
<path d="M5.93319 0.631836C3.06628 0.631836 0.741699 2.61172 0.741699 5.05351C0.741699 7.4953 3.06628 9.47519 5.93319 9.47519C8.8001 9.47519 11.1247 7.4953 11.1247 5.05351C11.1247 2.61172 8.8001 0.631836 5.93319 0.631836ZM5.93319 8.72508C3.55299 8.72508 1.6224 7.08077 1.6224 5.05351C1.6224 3.02625 3.55299 1.38194 5.93319 1.38194C8.3134 1.38194 10.244 3.02625 10.244 5.05351C10.244 7.08077 8.3134 8.72508 5.93319 8.72508ZM5.99809 3.46743C6.61226 3.46743 7.02943 3.80103 7.07579 4.29058C7.07926 4.33203 7.11982 4.36361 7.16849 4.36361H7.82554C7.85567 4.36361 7.88 4.34289 7.88 4.31722C7.88 3.46151 7.08737 2.86241 5.99461 2.86241C4.72107 2.86241 3.98638 3.59475 3.98638 4.80479V5.32098C3.98638 6.52214 4.72107 7.24461 5.99461 7.24461C7.0839 7.24461 7.88 6.66427 7.88 5.84902C7.88 5.82336 7.85567 5.80263 7.82554 5.80263H7.16733C7.11866 5.80263 7.07926 5.83422 7.07463 5.87468C7.02596 6.32968 6.60994 6.64255 5.99693 6.64255C5.24022 6.64255 4.81378 6.16979 4.81378 5.32395V4.80479C4.81494 3.94612 5.24254 3.46743 5.99809 3.46743Z" fill="white"/>
</g>
<defs>
<clipPath id="clip0_666_2776">
<rect width="11.8663" height="10.1067" fill="white"/>
</clipPath>
</defs>
</svg>
