<svg width="33" height="33" viewBox="0 0 33 33" fill="none" xmlns="http://www.w3.org/2000/svg">
<path d="M16.816 10.6956C13.8781 10.6956 11.4805 13.0933 11.4805 16.0312C11.4805 18.9692 13.8781 21.3669 16.816 21.3669C19.7539 21.3669 22.1515 18.9692 22.1515 16.0312C22.1515 13.0933 19.7539 10.6956 16.816 10.6956ZM32.8185 16.0312C32.8185 13.8218 32.8385 11.6323 32.7145 9.42679C32.5904 6.86506 32.006 4.59152 30.1328 2.71826C28.2555 0.840987 25.986 0.260595 23.4244 0.136511C21.2149 0.012427 19.0255 0.0324406 16.82 0.0324406C14.6106 0.0324406 12.4211 0.012427 10.2157 0.136511C7.65399 0.260595 5.3805 0.844989 3.50727 2.71826C1.63003 4.59552 1.04965 6.86506 0.925571 9.42679C0.80149 11.6363 0.821503 13.8258 0.821503 16.0312C0.821503 18.2367 0.80149 20.4302 0.925571 22.6357C1.04965 25.1974 1.63404 27.471 3.50727 29.3442C5.3845 31.2215 7.65399 31.8019 10.2157 31.926C12.4251 32.0501 14.6146 32.0301 16.82 32.0301C19.0295 32.0301 21.2189 32.0501 23.4244 31.926C25.986 31.8019 28.2595 31.2175 30.1328 29.3442C32.01 27.467 32.5904 25.1974 32.7145 22.6357C32.8425 20.4302 32.8185 18.2407 32.8185 16.0312ZM16.816 24.2408C12.273 24.2408 8.60662 20.5743 8.60662 16.0312C8.60662 11.4882 12.273 7.8217 16.816 7.8217C21.359 7.8217 25.0254 11.4882 25.0254 16.0312C25.0254 20.5743 21.359 24.2408 16.816 24.2408ZM25.3616 9.40277C24.3009 9.40277 23.4444 8.54619 23.4444 7.48548C23.4444 6.42476 24.3009 5.56818 25.3616 5.56818C26.4223 5.56818 27.2789 6.42476 27.2789 7.48548C27.2792 7.73735 27.2298 7.98681 27.1336 8.21957C27.0373 8.45233 26.8961 8.66381 26.718 8.84191C26.5399 9.02001 26.3285 9.16123 26.0957 9.25747C25.863 9.35371 25.6135 9.40309 25.3616 9.40277Z" fill="white"/>
</svg>
