<svg width="33" height="33" viewBox="0 0 33 33" fill="none" xmlns="http://www.w3.org/2000/svg">
<path fill-rule="evenodd" clip-rule="evenodd" d="M2.15381 3.81542C2.15381 3.16546 2.412 2.54212 2.87159 2.08253C3.33118 1.62294 3.95452 1.36475 4.60448 1.36475H29.0338C29.3559 1.36422 29.675 1.42723 29.9727 1.55017C30.2704 1.67311 30.5409 1.85356 30.7688 2.0812C30.9967 2.30883 31.1774 2.57918 31.3007 2.87676C31.424 3.17434 31.4873 3.49332 31.4871 3.81542V28.2447C31.4875 28.5669 31.4243 28.886 31.3012 29.1837C31.1782 29.4814 30.9976 29.752 30.7698 29.9798C30.5421 30.2077 30.2717 30.3884 29.974 30.5117C29.6763 30.6349 29.3573 30.6983 29.0351 30.6981H4.60448C4.28254 30.6981 3.96375 30.6347 3.66634 30.5114C3.36892 30.3882 3.0987 30.2075 2.87112 29.9798C2.64354 29.7521 2.46305 29.4818 2.33997 29.1843C2.21689 28.8868 2.15363 28.568 2.15381 28.2461V3.81542ZM13.7645 12.5487H17.7365V14.5434C18.3098 13.3968 19.7765 12.3647 21.9805 12.3647C26.2058 12.3647 27.2071 14.6488 27.2071 18.8394V26.6021H22.9311V19.7941C22.9311 17.4074 22.3578 16.0608 20.9018 16.0608C18.8818 16.0608 18.0418 17.5128 18.0418 19.7941V26.6021H13.7645V12.5487ZM6.43114 26.4194H10.7085V12.3647H6.43114V26.4181V26.4194ZM11.3205 7.78075C11.3285 8.14698 11.2634 8.51113 11.1288 8.85184C10.9942 9.19254 10.7929 9.50293 10.5368 9.76479C10.2806 10.0267 9.97474 10.2347 9.63708 10.3768C9.29943 10.5188 8.9368 10.592 8.57048 10.592C8.20416 10.592 7.84153 10.5188 7.50387 10.3768C7.16621 10.2347 6.86033 10.0267 6.60417 9.76479C6.34801 9.50293 6.14673 9.19254 6.01216 8.85184C5.87758 8.51113 5.81241 8.14698 5.82048 7.78075C5.83631 7.06189 6.13299 6.3778 6.64699 5.875C7.16099 5.37219 7.85144 5.09064 8.57048 5.09064C9.28951 5.09064 9.97996 5.37219 10.494 5.875C11.008 6.3778 11.3046 7.06189 11.3205 7.78075Z" fill="white"/>
</svg>
