<svg width="185" height="84" viewBox="0 0 185 84" fill="none" xmlns="http://www.w3.org/2000/svg">
<path d="M34.222 25.2965C34.222 26.508 34.0703 27.5606 33.7668 28.4542C33.4634 29.3477 33.0371 30.1201 32.488 30.7713C31.9533 31.4074 31.3031 31.9299 30.5372 32.3388C29.7858 32.7326 28.9477 33.0506 28.0228 33.293C27.1125 33.5201 26.1371 33.6792 25.0967 33.77C24.0562 33.8609 22.9797 33.9063 21.867 33.9063H0.256592L0.256592 2.6927H21.4769C22.3294 2.6927 23.182 2.73056 24.0346 2.80628C24.9016 2.88201 25.7252 3.02589 26.5056 3.23791C27.2859 3.4348 28.0084 3.71498 28.6731 4.07846C29.3523 4.44193 29.9375 4.919 30.4288 5.50965C30.9346 6.1003 31.3247 6.81211 31.5993 7.64508C31.8883 8.47805 32.0328 9.46247 32.0328 10.5983C32.0328 12.6277 31.5559 14.2407 30.6022 15.4371C29.6485 16.6184 28.1457 17.406 26.0937 17.7997C27.5388 17.9057 28.7743 18.1405 29.8002 18.504C30.8406 18.8523 31.686 19.3369 32.3363 19.9579C32.9865 20.5637 33.4634 21.3133 33.7668 22.2069C34.0703 23.0853 34.222 24.1152 34.222 25.2965ZM24.1863 11.9387C24.1863 11.5449 24.1285 11.1738 24.0129 10.8255C23.8973 10.462 23.6877 10.144 23.3843 9.87138C23.0808 9.59877 22.669 9.37917 22.1488 9.21258C21.6286 9.04598 20.9639 8.96268 20.1547 8.96268H8.29818V14.8238H20.1547C20.9639 14.8238 21.6286 14.748 22.1488 14.5966C22.669 14.4451 23.0808 14.2407 23.3843 13.9832C23.6877 13.7258 23.8973 13.4229 24.0129 13.0745C24.1285 12.711 24.1863 12.3324 24.1863 11.9387ZM26.0504 24.3196C26.0504 23.6078 25.9348 23.0399 25.7036 22.6158C25.4724 22.1766 25.1111 21.8434 24.6198 21.6162C24.1285 21.3739 23.4927 21.2149 22.7124 21.1392C21.932 21.0635 21 21.0256 19.9162 21.0256H8.29818V27.6363H19.9162C21 27.6363 21.932 27.5985 22.7124 27.5228C23.4927 27.447 24.1285 27.288 24.6198 27.0457C25.1111 26.8034 25.4724 26.4702 25.7036 26.0461C25.9348 25.6069 26.0504 25.0314 26.0504 24.3196Z" fill="#272727"/>
<path d="M103.504 2.6927V20.2759C103.504 21.4421 103.598 22.5022 103.785 23.4564C103.973 24.3953 104.32 25.2056 104.826 25.8871C105.332 26.5535 106.04 27.076 106.95 27.4546C107.86 27.8181 109.045 27.9998 110.505 27.9998C111.603 27.9998 112.752 27.8408 113.951 27.5228C115.165 27.2047 116.364 26.7807 117.549 26.2506C118.734 25.7205 119.861 25.1147 120.931 24.4332C122.015 23.7365 122.983 23.0171 123.835 22.275V2.6927H131.855V33.9063H123.835V29.6355C122.824 30.2413 121.747 30.8546 120.606 31.4756C119.464 32.0814 118.25 32.6342 116.964 33.1339C115.678 33.6186 114.312 34.0123 112.867 34.3152C111.422 34.6333 109.898 34.7923 108.294 34.7923C106.285 34.7923 104.486 34.5348 102.897 34.0199C101.307 33.5201 99.9634 32.8083 98.8651 31.8845C97.7669 30.9455 96.9216 29.8172 96.3291 28.4996C95.7511 27.1668 95.4621 25.6827 95.4621 24.047V2.6927H103.504Z" fill="#272727"/>
<path d="M162.145 9.34888C161.206 9.34888 160.361 9.38674 159.609 9.46247C158.872 9.53819 158.244 9.71993 157.724 10.0077C157.203 10.2954 156.806 10.7271 156.531 11.3026C156.257 11.8629 156.12 12.6353 156.12 13.6197V14.7783H178.575V21.4345H156.12V33.9063H148.078V12.9155C148.078 11.3101 148.302 9.87138 148.75 8.59921C149.212 7.32704 149.978 6.25932 151.047 5.39606C152.117 4.51766 153.533 3.85128 155.296 3.39694C157.059 2.92744 159.255 2.6927 161.885 2.6927H179.637V9.34888H162.145Z" fill="#272727"/>
<path d="M8.29818 82.37H0.256592L0.256592 51.1564H20.4148C22.5823 51.1564 24.4175 51.3911 25.9203 51.8606C27.4376 52.3301 28.6659 52.9965 29.6051 53.8597C30.5589 54.723 31.2453 55.768 31.6643 56.9947C32.0978 58.2063 32.3146 59.5618 32.3146 61.0611C32.3146 62.3787 32.1339 63.5297 31.7727 64.5142C31.4259 65.4986 30.949 66.3467 30.3421 67.0585C29.7496 67.7552 29.056 68.3458 28.2613 68.8305C27.4665 69.3151 26.6284 69.7164 25.7469 70.0345L35.5009 82.37H26.0937L17.0767 70.875H8.29818V82.37ZM24.1863 61.0157C24.1863 60.4099 24.1068 59.895 23.9479 59.4709C23.8034 59.0469 23.5432 58.7061 23.1675 58.4486C22.7918 58.176 22.2861 57.9791 21.6503 57.858C21.0289 57.7368 20.2486 57.6762 19.3093 57.6762H8.29818V64.3551H19.3093C20.2486 64.3551 21.0289 64.2946 21.6503 64.1734C22.2861 64.0522 22.7918 63.8629 23.1675 63.6055C23.5432 63.3329 23.8034 62.9845 23.9479 62.5605C24.1068 62.1364 24.1863 61.6215 24.1863 61.0157Z" fill="#272727"/>
<path d="M41.2665 82.37V51.1564H49.3081V82.37H41.2665Z" fill="#272727"/>
<path d="M77.833 50.3613C80.752 50.3613 83.4614 50.6263 85.9613 51.1564C88.4757 51.6713 90.7805 52.3377 92.8758 53.1555V60.7885C92.0521 60.3039 91.1201 59.8344 90.0796 59.38C89.0537 58.9257 87.9338 58.5244 86.7199 58.176C85.5061 57.8277 84.2056 57.5475 82.8184 57.3355C81.4311 57.1235 79.9717 57.0174 78.4399 57.0174C76.5325 57.0174 74.8707 57.1613 73.4546 57.4491C72.0384 57.7368 70.8246 58.123 69.8131 58.6077C68.8016 59.0923 67.9707 59.6602 67.3204 60.3115C66.6702 60.9475 66.1572 61.6291 65.7815 62.356C65.4058 63.083 65.1457 63.8251 65.0012 64.5823C64.8566 65.3396 64.7844 66.0741 64.7844 66.7859C64.7844 67.4068 64.8422 68.0808 64.9578 68.8077C65.0879 69.5347 65.3191 70.2617 65.6514 70.9886C65.9982 71.7156 66.4751 72.4122 67.082 73.0786C67.6889 73.745 68.4764 74.3356 69.4446 74.8506C70.4272 75.3655 71.6049 75.782 72.9777 76.1C74.3505 76.4029 75.9834 76.5544 77.8764 76.5544C78.8301 76.5544 79.661 76.5241 80.369 76.4635C81.0771 76.4029 81.7201 76.3196 82.2982 76.2136C82.8906 76.1076 83.4397 75.9789 83.9455 75.8274C84.4657 75.676 85.0004 75.5169 85.5495 75.3503V71.5793H76.5325V64.7413H93.5911V80.6889C92.5217 81.0675 91.3224 81.4159 89.9929 81.7339C88.678 82.0368 87.3124 82.2943 85.8963 82.5063C84.4946 82.7335 83.0857 82.9076 81.6696 83.0288C80.2534 83.15 78.9168 83.2105 77.6596 83.2105C75.7088 83.2105 73.8375 83.0742 72.0457 82.8016C70.2538 82.529 68.5776 82.1125 67.017 81.5522C65.4708 80.9767 64.0547 80.2497 62.7686 79.3713C61.497 78.4929 60.406 77.4479 59.4956 76.2363C58.5997 75.0247 57.8988 73.639 57.3931 72.079C56.9018 70.504 56.6561 68.7396 56.6561 66.7859C56.6561 64.8474 56.9162 63.0905 57.4364 61.5155C57.9566 59.9404 58.6791 58.5471 59.604 57.3355C60.5432 56.1239 61.6631 55.0789 62.9637 54.2005C64.2786 53.3221 65.7164 52.6027 67.2771 52.0423C68.8522 51.4668 70.5284 51.0428 72.3058 50.7702C74.0976 50.4976 75.94 50.3613 77.833 50.3613Z" fill="#272727"/>
<path d="M130.764 82.37V69.353H110.303V82.37H102.261V51.1564H110.303V62.515H130.764V51.1564H138.806V82.37H130.764Z" fill="#272727"/>
<path d="M164.817 57.9489V82.37H156.775V57.9489H144.138V51.1564H177.475V57.9489H164.817Z" fill="#272727"/>
<path d="M66.3557 34.6965L66.3283 30.8343C66.3283 27.726 70.1984 28.8544 69.6113 24.0181L68.519 5.95438C68.4831 5.14503 67.4627 5.12999 67.494 5.93967L67.3278 21.4072C67.2435 22.6676 65.6749 22.4589 65.7249 21.1339L65.5233 5.92231C65.5233 5.01457 64.532 5.19791 64.5228 5.98937L64.2523 21.5051C64.2206 22.4935 62.6867 22.3974 62.7188 21.4587L62.489 5.89753C62.489 5.19519 61.5443 5.12595 61.5245 5.81405L61.2483 21.5265C61.1746 22.5997 59.6596 22.4553 59.7381 21.2963L59.5484 5.94179C59.5606 5.07486 58.6277 5.12025 58.5847 5.94179L57.3483 24.7759C57.3192 28.8321 60.626 27.5501 60.7012 31.0167L60.697 34.7141C48.6294 32.9365 41.6912 19.7371 48.1679 9.18378C55.1011 -2.11323 72.2534 -1.98138 78.9679 9.42045C85.1699 19.9519 78.2092 32.8683 66.3557 34.6965Z" fill="#FFFFFD"/>
<path d="M173.374 67.6694H184.105V82.37H173.374V67.6694Z" fill="#F2DA02"/>
</svg>
