<svg width="40" height="40" viewBox="0 0 40 40" fill="none" xmlns="http://www.w3.org/2000/svg">
<path d="M20 20C24.6024 20 28.3333 16.269 28.3333 11.6667C28.3333 7.0643 24.6024 3.33334 20 3.33334C15.3976 3.33334 11.6667 7.0643 11.6667 11.6667C11.6667 16.269 15.3976 20 20 20Z" stroke="black" stroke-width="3"/>
<path d="M28.3333 36.6667H8.77666C8.30396 36.6668 7.83665 36.5663 7.40573 36.372C6.97482 36.1777 6.59016 35.894 6.27728 35.5397C5.96441 35.1853 5.73047 34.7685 5.591 34.3169C5.45152 33.8652 5.40971 33.3891 5.46832 32.92L6.11832 27.7133C6.26948 26.5037 6.85735 25.391 7.77138 24.5844C8.6854 23.7778 9.86262 23.3329 11.0817 23.3333H11.6667" stroke="black" stroke-width="3" stroke-linecap="round" stroke-linejoin="round"/>
<path d="M26.6667 26.6667L30.4167 30L36.6667 23.3333" stroke="black" stroke-width="3" stroke-linecap="round" stroke-linejoin="round"/>
</svg>
